<?xml version="1.0" encoding="UTF-8" standalone="no"?>
<svg
   height="24"
   viewBox="0 96 960 960"
   width="24"
   version="1.1"
   id="svg1953"
   sodipodi:docname="error_icon.svg"
   inkscape:version="1.2 (dc2aedaf03, 2022-05-15)"
   xmlns:inkscape="http://www.inkscape.org/namespaces/inkscape"
   xmlns:sodipodi="http://sodipodi.sourceforge.net/DTD/sodipodi-0.dtd"
   xmlns="http://www.w3.org/2000/svg"
   xmlns:svg="http://www.w3.org/2000/svg">
  <defs
     id="defs1957" />
  <sodipodi:namedview
     id="namedview1955"
     pagecolor="#ffffff"
     bordercolor="#000000"
     borderopacity="0.25"
     inkscape:showpageshadow="2"
     inkscape:pageopacity="0.0"
     inkscape:pagecheckerboard="0"
     inkscape:deskcolor="#d1d1d1"
     showgrid="false"
     inkscape:zoom="34.541667"
     inkscape:cx="11.638118"
     inkscape:cy="12.014475"
     inkscape:window-width="2560"
     inkscape:window-height="1009"
     inkscape:window-x="-8"
     inkscape:window-y="-8"
     inkscape:window-maximized="1"
     inkscape:current-layer="svg1953" />
  <path
     d="M480 776q17 0 28.5-11.5T520 736q0-17-11.5-28.5T480 696q-17 0-28.5 11.5T440 736q0 17 11.5 28.5T480 776Zm-40-160h80V376h-80v240Zm40 360q-83 0-156-31.5T197 859q-54-54-85.5-127T80 576q0-83 31.5-156T197 293q54-54 127-85.5T480 176q83 0 156 31.5T763 293q54 54 85.5 127T880 576q0 83-31.5 156T763 859q-54 54-127 85.5T480 976Z"
     id="path1951"
     style="fill:#ff5449;fill-opacity:1" />
</svg>
